<?xml version="1.0" standalone="no"?>
<!DOCTYPE svg PUBLIC "-//W3C//DTD SVG 20010904//EN"
 "http://www.w3.org/TR/2001/REC-SVG-20010904/DTD/svg10.dtd">
<svg version="1.0" xmlns="http://www.w3.org/2000/svg"
 width="686.000000pt" height="686.000000pt" viewBox="0 0 686.000000 686.000000"
 preserveAspectRatio="xMidYMid meet">
<metadata>
Created by potrace 1.14, written by Peter Selinger 2001-2017
</metadata>
<g transform="translate(0.000000,686.000000) scale(0.100000,-0.100000)"
fill="#000000" stroke="none">
<path d="M0 3430 l0 -3430 3430 0 3430 0 0 3430 0 3430 -3430 0 -3430 0 0
-3430z m3584 1535 c167 -29 323 -109 428 -220 62 -64 1625 -2151 1666 -2223
29 -51 39 -140 23 -199 -11 -41 -13 -43 -50 -43 -31 0 -49 -9 -87 -40 -59 -49
-132 -73 -192 -64 -77 11 -126 56 -267 240 -228 299 -356 465 -459 598 -147
187 -379 480 -386 486 -3 3 -30 34 -60 70 -30 36 -58 66 -62 68 -4 2 -37 44
-74 93 -37 49 -69 87 -72 85 -3 -3 -19 13 -36 36 -16 22 -32 36 -34 29 -2 -6
-59 62 -126 151 -151 201 -254 302 -320 316 -115 24 -184 -26 -361 -262 -49
-65 -91 -113 -93 -107 -2 7 -14 -2 -26 -18 -13 -17 -25 -28 -28 -25 -3 3 -27
-24 -54 -60 -26 -37 -51 -66 -56 -66 -4 0 -8 -7 -8 -15 0 -8 -4 -15 -8 -15 -8
0 -42 -41 -210 -249 -29 -36 -66 -81 -83 -99 -37 -43 -423 -538 -744 -954 -96
-125 -190 -239 -209 -253 -53 -40 -117 -57 -175 -44 -46 10 -67 21 -141 75
-25 18 -44 24 -67 22 -28 -3 -34 0 -43 26 -17 48 -12 167 8 206 31 62 1605
2173 1660 2227 192 191 470 276 746 228z m29 -1843 c77 -38 148 -111 185 -190
23 -49 27 -70 27 -147 0 -97 -24 -185 -51 -185 -21 0 -91 -78 -114 -126 -16
-33 -29 -46 -71 -63 -65 -28 -178 -38 -248 -21 -43 10 -54 17 -67 46 -9 18
-23 36 -32 39 -10 3 -41 35 -70 70 -30 36 -57 64 -60 64 -30 -4 -42 6 -56 48
-20 60 -21 187 -1 244 23 66 81 145 137 185 76 56 145 75 260 71 85 -3 106 -8
161 -35z"/>
</g>
</svg>
