<?xml version="1.0" standalone="no"?>
<!DOCTYPE svg PUBLIC "-//W3C//DTD SVG 20010904//EN"
 "http://www.w3.org/TR/2001/REC-SVG-20010904/DTD/svg10.dtd">
<svg version="1.0" xmlns="http://www.w3.org/2000/svg"
 width="214.000000pt" height="214.000000pt" viewBox="0 0 214.000000 214.000000"
 preserveAspectRatio="xMidYMid meet">
<metadata>
Created by potrace 1.14, written by Peter Selinger 2001-2017
</metadata>
<g transform="translate(0.000000,214.000000) scale(0.100000,-0.100000)"
fill="#000000" stroke="none">
<path d="M1007 1616 c3 -5 -6 -7 -20 -4 -15 3 -28 1 -29 -3 -2 -5 -15 -10 -30
-11 -16 -1 -28 -6 -28 -10 0 -4 -3 -7 -7 -6 -5 1 -28 -5 -53 -12 -67 -20 -73
-22 -92 -23 -10 -1 -18 -5 -18 -10 0 -5 -9 -7 -20 -4 -13 3 -18 1 -13 -6 4 -6
-2 -8 -15 -5 -12 4 -20 2 -16 -3 5 -8 -19 -13 -54 -12 -7 1 -11 -2 -7 -5 3 -3
-16 -12 -42 -19 -61 -17 -64 -18 -91 -27 -15 -5 -29 -3 -40 6 -15 11 -15 11
-5 -3 11 -13 2 -18 -63 -37 -41 -13 -80 -19 -86 -16 -7 5 -8 2 -3 -6 6 -10 4
-12 -8 -7 -10 4 -17 2 -17 -4 0 -6 -6 -9 -14 -6 -8 3 -20 -1 -26 -9 -7 -8 -18
-14 -24 -14 -20 0 -73 -53 -81 -80 -9 -28 -9 -465 0 -480 3 -5 1 -11 -5 -15
-7 -4 -6 -14 2 -28 7 -12 12 -25 13 -29 0 -10 15 -12 23 -2 4 4 1 4 -7 -1 -10
-5 -12 -4 -7 4 4 6 12 9 17 5 5 -3 7 -10 4 -15 -4 -5 -1 -17 5 -26 11 -17 11
-17 6 0 -7 21 10 23 18 1 4 -9 13 -14 21 -10 15 5 22 -9 8 -17 -5 -2 -3 -2 4
-1 7 2 15 -2 19 -8 5 -7 12 -5 22 8 13 18 14 18 7 -3 -5 -19 -3 -22 12 -16 10
4 21 11 24 16 3 5 9 1 12 -8 4 -9 3 -13 -3 -10 -6 3 -10 2 -10 -3 0 -5 12 -9
26 -9 15 0 30 -6 34 -13 5 -8 10 -9 14 -2 3 6 0 12 -6 15 -10 3 -10 8 1 18 8
8 11 9 7 2 -3 -6 -2 -14 4 -18 6 -4 8 -10 5 -15 -3 -5 -1 -11 5 -15 5 -3 10
-2 10 3 0 5 7 9 15 9 9 0 11 -4 6 -11 -6 -8 5 -12 37 -13 28 -2 49 2 54 10 5
7 6 -1 3 -18 l-6 -30 16 25 c9 14 14 17 11 8 -6 -20 3 -27 41 -34 15 -3 34
-11 42 -17 8 -7 16 -11 18 -9 11 8 33 0 27 -10 -4 -6 3 -4 17 5 28 20 51 23
24 3 -18 -13 -17 -14 18 -12 20 1 37 -2 37 -7 0 -9 39 -25 83 -32 17 -4 34
-11 38 -17 4 -7 9 -7 13 1 4 6 2 11 -3 11 -6 0 -11 5 -11 11 0 8 5 7 15 -1 9
-7 14 -19 11 -27 -3 -8 -1 -11 4 -8 6 3 16 3 22 -2 21 -12 72 -13 80 0 5 7 8
2 9 -13 0 -14 3 -19 6 -12 2 6 11 12 19 12 9 0 12 -5 8 -12 -6 -10 -4 -10 7
-1 17 17 59 17 59 1 0 -9 3 -9 8 -3 4 6 15 11 25 12 43 2 45 3 41 26 -4 20 -3
19 7 -3 l11 -25 14 30 c8 17 12 22 9 13 -3 -11 1 -18 10 -18 8 0 15 6 15 14 0
8 5 18 11 22 8 4 9 -1 4 -17 -7 -20 -5 -22 6 -12 8 6 19 12 24 14 6 1 24 7 40
13 17 5 34 9 38 8 5 -1 6 8 2 20 -5 22 -5 21 9 -2 9 -14 15 -20 16 -13 0 6 9
10 20 8 12 -2 18 0 15 6 -4 5 -11 6 -17 3 -7 -4 -8 -2 -4 4 5 9 13 9 26 2 24
-13 33 -13 25 0 -6 9 22 15 53 11 6 -1 12 3 12 9 0 6 -5 8 -12 4 -6 -4 -9 -3
-5 2 3 5 20 8 39 8 18 -1 38 2 44 7 6 5 23 10 38 11 14 1 26 6 26 11 0 5 7 7
15 4 8 -4 17 -2 20 4 4 5 11 7 16 4 5 -4 9 -1 9 4 0 6 -4 11 -10 11 -5 0 -10
4 -10 8 0 5 7 9 15 9 8 0 12 -4 9 -9 -3 -4 0 -8 6 -8 6 0 8 -6 5 -12 -4 -7 1
-4 9 6 9 11 16 16 16 10 0 -5 4 -4 8 2 10 15 57 30 48 15 -5 -8 0 -8 18 1 14
6 26 16 26 21 0 5 -7 4 -15 -3 -9 -7 -15 -8 -15 -2 0 5 7 13 16 16 22 9 24 8
25 -11 0 -12 2 -13 6 -5 4 10 8 10 20 1 20 -17 14 11 -7 30 -11 9 -8 9 10 -2
35 -20 74 -6 66 25 -3 13 -3 17 0 10 3 -6 11 -9 16 -6 6 4 8 2 4 -4 -3 -6 -1
-14 6 -18 7 -4 10 -4 6 1 -4 4 -3 15 4 22 9 11 9 17 -3 24 -10 7 -6 8 14 5 19
-3 27 0 27 10 0 8 7 17 15 20 8 4 12 10 9 16 -3 5 -13 0 -21 -11 -8 -12 -19
-21 -25 -21 -7 0 -4 6 6 13 17 12 19 33 20 228 0 118 5 220 10 228 6 10 6 12
-2 7 -8 -5 -12 2 -12 19 0 15 -5 36 -11 48 -11 21 -64 76 -74 77 -3 0 -10 0
-16 0 -5 0 -8 4 -5 9 4 5 -3 7 -14 4 -13 -4 -27 1 -36 13 -9 11 -13 13 -9 7 8
-16 6 -16 -33 -2 -20 7 -29 15 -25 22 5 8 2 8 -8 0 -9 -8 -19 -9 -25 -3 -5 5
-20 11 -34 13 -14 2 -34 7 -45 11 -11 5 -27 10 -35 14 -8 3 -21 4 -29 3 -8 -1
-10 2 -5 10 4 7 3 10 -3 6 -11 -7 -96 16 -89 24 3 3 -5 5 -17 5 -12 -1 -56 10
-97 23 -97 30 -104 33 -108 31 -2 -1 -10 7 -19 17 -8 10 -11 12 -7 4 5 -11 3
-13 -10 -8 -10 4 -20 7 -22 7 -3 0 -3 4 0 9 3 4 -6 6 -21 3 -17 -3 -24 -1 -19
6 4 6 -2 8 -14 5 -11 -3 -26 -1 -33 3 -6 5 -33 9 -59 9 -27 0 -48 2 -48 5 0 3
-15 5 -34 5 -19 0 -32 -4 -29 -9z m-886 -853 c13 -16 12 -17 -3 -4 -10 7 -18
15 -18 17 0 8 8 3 21 -13z m1830 -70 c13 -16 12 -17 -3 -4 -17 13 -22 21 -14
21 2 0 10 -8 17 -17z m-23 -18 c-3 -3 -9 2 -12 12 -6 14 -5 15 5 6 7 -7 10
-15 7 -18z m-1593 -23 c-3 -3 -11 0 -18 7 -9 10 -8 11 6 5 10 -3 15 -9 12 -12z
m1435 -8 c0 -8 -19 -13 -24 -6 -3 5 1 9 9 9 8 0 15 -2 15 -3z m-1310 -24 c8
-5 11 -10 5 -10 -5 0 -17 5 -25 10 -8 5 -10 10 -5 10 6 0 17 -5 25 -10z m1190
-20 c0 -5 -8 -10 -17 -10 -15 0 -16 2 -3 10 19 12 20 12 20 0z m-1082 -18 c15
12 16 11 3 -4 -14 -19 -32 -15 -30 5 0 8 2 8 6 -1 4 -10 8 -10 21 0z m1005 -7
c-3 -9 -8 -14 -10 -11 -3 3 -2 9 2 15 9 16 15 13 8 -4z m-959 -21 c6 -15 4
-15 -11 -3 -10 7 -20 15 -22 16 -2 2 3 3 11 3 9 0 19 -7 22 -16z m31 6 c3 -5
1 -10 -4 -10 -6 0 -11 5 -11 10 0 6 2 10 4 10 3 0 8 -4 11 -10z m865 5 c0 -2
-10 -9 -22 -15 -22 -11 -22 -10 -4 4 21 17 26 19 26 11z m-830 -19 c0 -3 -4
-8 -10 -11 -5 -3 -10 -1 -10 4 0 6 5 11 10 11 6 0 10 -2 10 -4z m137 -32 c-3
-3 -12 -4 -19 -1 -8 3 -5 6 6 6 11 1 17 -2 13 -5z m526 -9 c-3 -9 -8 -14 -10
-11 -3 3 -2 9 2 15 9 16 15 13 8 -4z m-41 -27 c-6 -6 -12 -6 -17 3 -5 8 -4 10
3 5 7 -4 12 0 13 11 0 12 2 13 6 5 3 -8 1 -18 -5 -24z m-359 -23 c-7 -21 -12
-19 -10 4 0 11 5 18 9 15 4 -3 5 -11 1 -19z m190 -8 c3 -8 -1 -14 -8 -14 -7 0
-11 6 -8 14 3 7 6 13 8 13 2 0 5 -6 8 -13z"/>
<path d="M70 806 c0 -2 7 -7 16 -10 8 -3 12 -2 9 4 -6 10 -25 14 -25 6z"/>
</g>
</svg>
